<?xml version="1.0" encoding="UTF-8"?><svg id="Layer_2" xmlns="http://www.w3.org/2000/svg" viewBox="0 0 76 105.77"><defs><style>.cls-1{fill:#640d0d;stroke:#e6e7e8;}.cls-2{fill:#fff;stroke:#fff;stroke-width:.25px;}</style></defs><g id="Layer_1-2"><path class="cls-1" d="M6.45.5h63.1c3.29,0,5.95,2.67,5.95,5.95v92.86c0,3.29-2.67,5.95-5.95,5.95H6.45c-3.29,0-5.95-2.67-5.95-5.95V6.45C.5,3.17,3.17.5,6.45.5Z"/><path class="cls-2" d="M18,58.79c.12-.87.19-2.18.19-3.92,0-3.46-.15-6-.46-7.6-.31-1.6-.8-2.4-1.48-2.4-.44,0-.86.23-1.27.69-.41.46-.66.99-.76,1.59-.3-.07-.45-.2-.45-.39,0-.74.36-1.52,1.08-2.32.72-.8,1.41-1.21,2.07-1.21s1.18.26,1.52.77c.35.51.65,1.46.9,2.83.39,2.04.58,4.4.58,7.07v.76s1.58-3.06,1.58-3.06l.7-1.34,1.01-2c.58-1.14.97-2.04,1.17-2.73l1.67-1.59c-.05.55-.08,1.03-.08,1.42,0,1.24.25,3.21.75,5.93l.13.71.22,1.14c.15.78.29,1.62.44,2.53.21-.4.35-.66.4-.78l.88-1.83,1.07-2.17c.89-1.84,1.33-3.28,1.33-4.31,0-.7-.29-1.23-.86-1.59l1.6-1.76c.74.49,1.11,1.07,1.11,1.76,0,.91-.77,2.87-2.3,5.87-.26.5-.56,1.11-.92,1.83l-.47.96-.48,1.1-.63,1.42c-.05.12-.17.41-.35.87l-1.67,1.78-.04-.48c-.15-1.53-.42-3.34-.82-5.42l-.13-.65-.18-.97c-.14-.71-.23-1.22-.27-1.55l-.21-1.5c-.02-.11-.05-.36-.11-.76l-1.47,2.93-.6,1.19c-1.1,2.15-1.94,3.95-2.52,5.38l-1.87,1.8Z"/><path class="cls-2" d="M36.63,52.33c.85-1.28,1.79-2.34,2.81-3.17,1.02-.83,1.9-1.25,2.63-1.25s1.06.49,1.06,1.47c0,.29-.04.74-.13,1.34l-.58,4.07c-.12.81-.18,1.46-.18,1.93,0,.38.1.57.31.57.5,0,1.12-.67,1.85-2,.18.11.27.22.27.34,0,.47-.41,1.09-1.22,1.86-.81.77-1.47,1.15-1.98,1.15-.57,0-.85-.41-.85-1.22,0-.6.08-1.42.23-2.48l.38-2.64c.12-.87.18-1.55.18-2.06,0-.56-.2-.84-.6-.84-.93,0-1.87.63-2.82,1.89-.95,1.26-1.51,2.62-1.68,4.07l-.29,2.62-1.63.67.03-.31.09-.81.09-.76,1.06-9.57c.25-2.26,1.09-4.18,2.51-5.78,1.42-1.6,3-2.4,4.76-2.4.36,0,.72.04,1.06.12l-1.6,1.57c-.41-.12-.81-.19-1.18-.19-2.16,0-3.43,1.69-3.81,5.07l-.76,6.74Z"/><path class="cls-2" d="M48.11,58.64c-1.64,0-2.46-1.08-2.46-3.25,0-1.75.64-3.43,1.92-5.05,1.28-1.62,2.61-2.43,3.98-2.43,1.66,0,2.49,1.08,2.49,3.25,0,1.75-.64,3.44-1.92,5.05s-2.62,2.42-4.02,2.42ZM49.43,57.42c.84,0,1.54-.47,2.1-1.4s.85-2.09.85-3.48c0-2.27-.71-3.41-2.12-3.41-.83,0-1.53.47-2.09,1.4-.56.93-.85,2.09-.85,3.48,0,2.27.7,3.41,2.11,3.41Z"/><path class="cls-2" d="M58.68,49.46l-.53,4.82c-.1.87-.14,1.51-.14,1.92,0,.82.28,1.23.84,1.23.6,0,1.23-.49,1.87-1.48.11.14.16.26.16.37,0,.41-.36.9-1.07,1.46s-1.33.85-1.85.85c-1.03,0-1.55-.66-1.55-1.99,0-.49.06-1.28.18-2.37l.52-4.82h-2.29l1.27-1.27h1.16l.23-1.99,1.61-.53-.27,2.52h4.63l-1.28,1.27h-3.5Z"/></g></svg>